Coordinates
version=1
nRows=14
nColumns=24
inDegrees=yes

Units are S.I. units (second, meters, Newtons, ...)
Angles are in degrees.

endheader
time	pelvis_tilt	pelvis_list	pelvis_rotation	pelvis_tx	pelvis_ty	pelvis_tz	hip_flexion_r	hip_adduction_r	hip_rotation_r	knee_angle_r	ankle_angle_r	subtalar_angle_r	mtp_angle_r	hip_flexion_l	hip_adduction_l	hip_rotation_l	knee_angle_l	ankle_angle_l	subtalar_angle_l	mtp_angle_l	lumbar_extension	lumbar_bending	lumbar_rotation
      7.48000000	     -3.30637881	     -0.39189598	     11.25058709	      1.67129979	      0.66947760	     -0.21393441	     19.52829503	      2.46888849	     -8.83706709	    -14.78463308	      8.47540040	     -9.14903958	      0.00000000	      8.71555513	     -1.34431770	      1.15440836	    -60.26847674	    -17.74541704	    -21.98434239	      0.00000000	    -10.78881608	     -1.70722160	     -7.10778763
      7.49000000	     -3.39474135	     -0.24724467	     10.58510070	      1.68014176	      0.67132924	     -0.21297203	     18.52705905	      2.64729468	     -8.63896641	    -14.30295067	      9.40095326	     -7.82085697	      0.00000000	     10.61483331	     -0.74790792	      1.20427807	    -61.79176511	    -15.59753684	    -22.97674832	      0.00000000	    -10.80414777	     -1.92328146	     -6.42066084
      7.50000000	     -3.45475144	     -0.01156215	      9.90737545	      1.68893983	      0.67314279	     -0.21205141	     17.46768563	      2.74358902	     -8.23683034	    -13.77984683	     10.13174374	     -6.94897516	      0.00000000	     12.39030816	     -0.05286863	      1.31910628	    -62.91038110	    -13.14667781	    -23.15620341	      0.00000000	    -10.83958124	     -2.23141145	     -5.67951606
      7.51000000	     -3.57929156	      0.31962559	      9.18444082	      1.69771337	      0.67482390	     -0.21115027	     16.45566271	      2.72867635	     -7.68919324	    -13.22613079	     10.77110190	     -6.16929057	      0.00000000	     14.13556373	      0.72130646	      1.39984427	    -63.62027012	    -10.64310387	    -22.68950573	      0.00000000	    -10.77247814	     -2.66020414	     -4.97985436
      7.52000000	     -3.71856795	      0.67578588	      8.49553583	      1.70636742	      0.67633037	     -0.21034224	     15.50768034	      2.64478554	     -7.17610327	    -12.74398548	     11.40544975	     -5.43708348	      0.00000000	     15.84712173	      1.51291311	      1.55165729	    -63.99957605	     -8.12629280	    -21.71655749	      0.00000000	    -10.69345446	     -3.09844700	     -4.29997983
      7.53000000	     -3.87443265	      1.05265080	      7.81018219	      1.71496891	      0.67765905	     -0.20960164	     14.60084868	      2.51089719	     -6.68600829	    -12.27846968	     12.02690569	     -4.78338578	      0.00000000	     17.50231533	      2.28249714	      1.68637931	    -64.01579708	     -5.83168182	    -20.67630194	      0.00000000	    -10.58436253	     -3.55105693	     -3.64799265
      7.54000000	     -4.03876907	      1.41579061	      7.15083852	      1.72348775	      0.67878314	     -0.20893686	     13.74656635	      2.36408468	     -6.20951968	    -11.86140646	     12.62319201	     -4.18712275	      0.00000000	     19.10840284	      2.99453912	      1.82515166	    -63.70427506	     -3.77638062	    -19.77308777	      0.00000000	    -10.46706035	     -3.97525154	     -3.02740062
      7.55000000	     -4.19139285	      1.73082350	      6.54251871	      1.73194341	      0.67969099	     -0.20835163	     12.92639527	      2.24429195	     -5.78366595	    -11.49633497	     13.22022835	     -3.70299334	      0.00000000	     20.64560038	      3.60777205	      1.97603672	    -63.08328699	     -1.95007510	    -19.22078474	      0.00000000	    -10.36360023	     -4.33408579	     -2.44308816
      7.56000000	     -4.31581869	      2.03835074	      5.94476648	      1.74037419	      0.68041303	     -0.20782522	     12.09808154	      2.13335373	     -5.24838894	    -11.15419554	     13.79351071	     -3.44465369	      0.00000000	     22.06291543	      4.15812063	      2.08751855	    -62.10901572	     -0.60195953	    -19.41097895	      0.00000000	    -10.28743367	     -4.67160052	     -1.87305471
      7.57000000	     -4.42433347	      2.24262779	      5.40930447	      1.74879565	      0.68089416	     -0.20734902	     11.28285045	      2.11955213	     -4.77129513	    -10.83458634	     14.32076602	     -3.30890662	      0.00000000	     23.40699370	      4.52671188	      2.17252754	    -60.86399625	      0.63245059	    -19.98949994	      0.00000000	    -10.21323274	     -4.88734877	     -1.42600425
      7.58000000	     -4.54525742	      2.41989742	      4.86073124	      1.75723113	      0.68114796	     -0.20687427	     10.51507845	      2.14396024	     -4.12620909	    -10.58030017	     14.85597048	     -3.29411304	      0.00000000	     24.65654497	      4.79879017	      2.20091991	    -59.28502075	      1.58276962	    -20.95005885	      0.00000000	    -10.10623633	     -5.08563416	     -0.92401499
      7.59000000	     -4.65552175	      2.58315436	      4.32730881	      1.76568865	      0.68120486	     -0.20644148	      9.73823499	      2.19129692	     -3.34225447	    -10.31486676	     15.20092181	     -3.67787849	      0.00000000	     25.77135288	      4.99926530	      2.17091175	    -57.33603068	      1.88554475	    -22.83930871	      0.00000000	     -9.99737665	     -5.26395631	     -0.51425748
      7.60000000	     -4.71957119	      2.67584005	      3.80381903	      1.77420152	      0.68107727	     -0.20599442	      8.92882568	      2.32598510	     -2.45419741	    -10.07830769	     15.57007472	     -4.25625836	      0.00000000	     26.71960763	      5.05240842	      2.10548325	    -55.07604618	      1.95721733	    -24.87747245	      0.00000000	     -9.91761647	     -5.38168820	     -0.10145893
      7.61000000	     -4.76416689	      2.71712070	      3.26298165	      1.78278404	      0.68076580	     -0.20553601	      8.11830133	      2.51777267	     -1.48149480	     -9.88158335	     15.91903697	     -4.95999544	      0.00000000	     27.51089846	      4.97024832	      1.96612242	    -52.49093585	      1.81640770	    -26.91752903	      0.00000000	     -9.82854124	     -5.45066364	      0.30689105
